<svg width="431" height="101" viewBox="0 0 431 101" fill="none" xmlns="http://www.w3.org/2000/svg">
<path d="M77.392 80.218C77.392 82.81 75.772 84.106 72.532 84.106C69.346 84.106 67.753 82.81 67.753 80.218V19.144C67.753 16.552 69.346 15.256 72.532 15.256C75.772 15.256 77.392 16.552 77.392 19.144V80.218ZM45.559 80.218C45.559 82.81 43.939 84.106 40.699 84.106C37.513 84.106 35.92 82.81 35.92 80.218V61.507C35.92 61.291 35.893 61.102 35.839 60.94C35.785 60.778 35.569 60.697 35.191 60.697H14.293C12.295 60.697 11.269 59.347 11.215 56.647C11.215 53.893 12.241 52.516 14.293 52.516H40.456C42.4 52.516 43.723 53.029 44.425 54.055C45.181 55.027 45.559 56.134 45.559 57.376V80.218ZM56.98 32.428C56.98 37.018 55.144 40.96 51.472 44.254C47.854 47.548 43.426 49.195 38.188 49.195C32.896 49.195 28.414 47.575 24.742 44.335C21.07 41.095 19.234 37.126 19.234 32.428C19.234 27.73 21.07 23.761 24.742 20.521C28.414 17.281 32.896 15.661 38.188 15.661C43.426 15.661 47.854 17.308 51.472 20.602C55.144 23.896 56.98 27.838 56.98 32.428ZM47.341 32.428C47.341 29.89 46.45 27.811 44.668 26.191C42.886 24.571 40.726 23.761 38.188 23.761C35.596 23.761 33.409 24.571 31.627 26.191C29.899 27.811 29.035 29.89 29.035 32.428C29.035 34.912 29.899 36.991 31.627 38.665C33.409 40.285 35.596 41.095 38.188 41.095C40.726 41.095 42.886 40.285 44.668 38.665C46.45 36.991 47.341 34.912 47.341 32.428ZM137.022 67.258C137.886 69.742 136.806 71.497 133.782 72.523C130.758 73.549 128.814 72.82 127.95 70.336L112.803 24.814L97.6559 70.336C96.7919 72.82 94.8479 73.549 91.8239 72.523C88.7999 71.497 87.7199 69.742 88.5839 67.258L104.46 19.468C105.324 16.984 107.268 16.282 110.292 17.362C111.372 17.794 112.182 18.28 112.722 18.82C113.316 18.28 114.18 17.794 115.314 17.362C118.338 16.282 120.282 16.984 121.146 19.468L137.022 67.258ZM152.574 80.218C152.574 82.81 150.954 84.106 147.714 84.106C144.528 84.106 142.935 82.81 142.935 80.218V19.144C142.935 16.552 144.528 15.256 147.714 15.256C150.954 15.256 152.574 16.552 152.574 19.144V80.218Z" fill="black"/>
<path d="M328.634 80.218C328.634 82.81 327.014 84.106 323.774 84.106C320.588 84.106 318.995 82.81 318.995 80.218V56.242C318.995 56.026 318.968 55.837 318.914 55.675C318.86 55.513 318.644 55.432 318.266 55.432H291.293C289.295 55.432 288.269 54.082 288.215 51.382C288.215 48.628 289.241 47.251 291.293 47.251H323.531C325.475 47.251 326.798 47.764 327.5 48.79C328.256 49.762 328.634 50.869 328.634 52.111V80.218ZM344.834 48.385C344.834 50.977 343.214 52.273 339.974 52.273C336.788 52.273 335.195 50.977 335.195 48.385V26.029C335.195 25.813 335.168 25.624 335.114 25.462C335.06 25.3 334.844 25.219 334.466 25.219H299.636C297.638 25.219 296.612 23.869 296.558 21.169C296.558 18.415 297.584 17.038 299.636 17.038H339.731C341.675 17.038 342.998 17.551 343.7 18.577C344.456 19.549 344.834 20.656 344.834 21.898V48.385ZM416.127 80.218C416.127 82.81 414.507 84.106 411.267 84.106C408.081 84.106 406.488 82.81 406.488 80.218V19.144C406.488 16.552 408.081 15.256 411.267 15.256C414.507 15.256 416.127 16.552 416.127 19.144V80.218ZM366.069 63.37C366.069 63.586 366.123 63.775 366.231 63.937C366.393 64.099 366.582 64.18 366.798 64.18C369.822 64.288 374.466 63.478 380.73 61.75C387.048 60.022 392.016 58.159 395.634 56.161C398.064 54.811 399.819 55.54 400.899 58.348C402.033 61.156 401.304 63.181 398.712 64.423C395.202 66.097 390.072 67.987 383.322 70.093C376.626 72.145 369.363 73.306 361.533 73.576C360.183 73.63 358.995 73.144 357.969 72.118C356.943 71.092 356.43 69.958 356.43 68.716V21.088C356.43 18.496 358.023 17.2 361.209 17.2C364.449 17.2 366.069 18.496 366.069 21.088V63.37Z" fill="black"/>
<path d="M281.348 44.98C281.348 46.708 280.727 48.193 279.485 49.435C278.297 50.623 276.839 51.217 275.111 51.217C273.383 51.217 271.898 50.623 270.656 49.435C269.468 48.193 268.874 46.708 268.874 44.98C268.874 43.252 269.468 41.794 270.656 40.606C271.898 39.364 273.383 38.743 275.111 38.743C276.839 38.743 278.297 39.364 279.485 40.606C280.727 41.794 281.348 43.252 281.348 44.98ZM266.201 81.025C266.201 83.617 264.581 84.913 261.341 84.913C258.155 84.913 256.562 83.617 256.562 81.025V19.951C256.562 17.359 258.155 16.063 261.341 16.063C264.581 16.063 266.201 17.359 266.201 19.951V81.025Z" fill="black"/>
<path d="M192.441 69.3333H217.33M179.996 30.2222H175.335C174.581 30.2219 173.836 30.3814 173.149 30.6901C172.461 30.9988 171.847 31.4497 171.346 32.0131C170.846 32.5765 170.47 33.2396 170.245 33.9587C170.019 34.6777 169.948 35.4365 170.037 36.1848L174.876 76.8639C174.979 77.7279 175.395 78.5242 176.045 79.1021C176.696 79.6801 177.535 79.9995 178.405 79.9999H232.393C233.277 80.0001 234.129 79.6712 234.783 79.0773C235.437 78.4834 235.847 77.6671 235.932 76.7875L239.875 36.0693C239.947 35.329 239.863 34.582 239.629 33.8761C239.395 33.1703 239.016 32.5212 238.516 31.9705C238.016 31.4199 237.406 30.9799 236.726 30.6788C236.046 30.3777 235.311 30.2222 234.567 30.2222H229.774H179.996ZM171.107 44.4444H238.663H171.107ZM188.885 56.8888H220.885H188.885Z" stroke="black" stroke-width="4" stroke-linecap="round" stroke-linejoin="round"/>
<path d="M204.885 16C197.031 16 190.663 28.3111 190.663 43.4969C190.663 43.8133 190.667 44.1298 190.672 44.4444H219.099C219.104 44.1298 219.107 43.8133 219.107 43.4969C219.107 28.3111 212.739 16 204.885 16Z" fill="#2F88FF" stroke="black" stroke-width="4" stroke-linecap="round" stroke-linejoin="round"/>
</svg>
